<svg width="167" height="80" viewBox="0 0 167 80" fill="none" xmlns="http://www.w3.org/2000/svg">
<path d="M42.5859 52.3136L48.0005 44.4053L67.2057 80L56.6897 79.8913L42.5859 52.3136Z" fill="white" fill-opacity="0.94"/>
<path d="M21.6546 77.1798L0 35.2415H10.7421L27.2814 67.0023L21.6546 77.1798Z" fill="white" fill-opacity="0.94"/>
<path d="M44.3295 19.9149L67.2049 0L64.9858 29.1063L55.0843 33.8724L30.6728 80H23.6734L21.625 77.1063L48.4267 29.1063L44.3295 19.9149Z" fill="white"/>
<path d="M40.9222 69.4268L46.9108 79.9994H34.9336L40.9222 69.4268Z" fill="white"/>
<path d="M49.2371 69.4268H47.9062V79.9994H49.2371V69.4268Z" fill="white"/>
<path d="M51.5274 32.6256C53.6036 33.666 55.5415 33.9389 55.8558 33.2351C56.1701 32.5313 54.7418 31.1174 52.6656 30.077C50.5893 29.0365 48.6515 28.7636 48.3372 29.4674C48.0228 30.1712 49.4512 31.5851 51.5274 32.6256Z" fill="white"/>
<path d="M64.1405 5.51807L51.2031 29.3716L53.9655 31.4132L64.1405 5.51807Z" fill="white"/>
<path d="M78.5351 38.7665L82.0645 49.8608H82.1997L85.7364 38.7665H89.1588L84.1251 53.3688H80.1464L75.1055 38.7665H78.5351ZM97.2711 44.8625V47.2725H90.6117V44.8625H97.2711ZM102.433 53.3688H99.1249L104.166 38.7665H108.145L113.179 53.3688H109.87L106.212 42.1033H106.098L102.433 53.3688ZM102.227 47.6292H110.041V50.039H102.227V47.6292ZM127.134 43.8787H124.011C123.954 43.4746 123.837 43.1157 123.661 42.8019C123.486 42.4835 123.26 42.2125 122.984 41.9891C122.709 41.7657 122.39 41.5947 122.029 41.4758C121.672 41.3569 121.285 41.2976 120.866 41.2976C120.111 41.2976 119.452 41.4852 118.892 41.8608C118.331 42.2316 117.896 42.7734 117.587 43.4865C117.278 44.1949 117.123 45.0551 117.123 46.0675C117.123 47.1085 117.278 47.9831 117.587 48.6915C117.9 49.3996 118.338 49.9345 118.899 50.2959C119.46 50.657 120.108 50.8377 120.845 50.8377C121.259 50.8377 121.641 50.7831 121.993 50.6736C122.35 50.5645 122.666 50.4051 122.941 50.1958C123.217 49.9822 123.445 49.723 123.626 49.4187C123.811 49.1144 123.94 48.7674 124.011 48.3778L127.134 48.3919C127.053 49.0623 126.851 49.7086 126.528 50.3314C126.209 50.9494 125.779 51.5031 125.237 51.9929C124.7 52.4776 124.059 52.8625 123.312 53.1477C122.571 53.4281 121.732 53.5684 120.795 53.5684C119.493 53.5684 118.328 53.2738 117.302 52.6843C116.279 52.0948 115.471 51.2418 114.877 50.1246C114.288 49.0074 113.993 47.6553 113.993 46.0675C113.993 44.4754 114.293 43.1204 114.892 42.0035C115.49 40.8863 116.303 40.0355 117.33 39.4507C118.357 38.8616 119.512 38.5667 120.795 38.5667C121.641 38.5667 122.426 38.6856 123.148 38.9234C123.875 39.1608 124.519 39.5078 125.08 39.9643C125.641 40.4158 126.098 40.9695 126.449 41.6255C126.806 42.2815 127.034 43.0325 127.134 43.8787ZM142.232 43.8787H139.109C139.052 43.4746 138.935 43.1157 138.759 42.8019C138.584 42.4835 138.358 42.2125 138.082 41.9891C137.807 41.7657 137.488 41.5947 137.127 41.4758C136.77 41.3569 136.383 41.2976 135.964 41.2976C135.209 41.2976 134.55 41.4852 133.99 41.8608C133.429 42.2316 132.994 42.7734 132.685 43.4865C132.376 44.1949 132.221 45.0551 132.221 46.0675C132.221 47.1085 132.376 47.9831 132.685 48.6915C132.998 49.3996 133.436 49.9345 133.997 50.2959C134.558 50.657 135.206 50.8377 135.943 50.8377C136.357 50.8377 136.739 50.7831 137.091 50.6736C137.448 50.5645 137.764 50.4051 138.039 50.1958C138.315 49.9822 138.543 49.723 138.724 49.4187C138.909 49.1144 139.038 48.7674 139.109 48.3778L142.232 48.3919C142.151 49.0623 141.949 49.7086 141.626 50.3314C141.308 50.9494 140.877 51.5031 140.335 51.9929C139.798 52.4776 139.157 52.8625 138.41 53.1477C137.669 53.4281 136.83 53.5684 135.893 53.5684C134.591 53.5684 133.426 53.2738 132.4 52.6843C131.377 52.0948 130.569 51.2418 129.975 50.1246C129.386 49.0074 129.091 47.6553 129.091 46.0675C129.091 44.4754 129.391 43.1204 129.99 42.0035C130.588 40.8863 131.401 40.0355 132.428 39.4507C133.455 38.8616 134.61 38.5667 135.893 38.5667C136.739 38.5667 137.524 38.6856 138.246 38.9234C138.973 39.1608 139.617 39.5078 140.178 39.9643C140.739 40.4158 141.196 40.9695 141.548 41.6255C141.904 42.2815 142.132 43.0325 142.232 43.8787ZM144.446 53.3688V38.7665H154.285V41.3117H147.533V44.7913H153.779V47.3369H147.533V50.8233H154.314V53.3688H144.446ZM156.74 53.3688V38.7665H159.827V50.8233H166.087V53.3688H156.74Z" fill="white"/>
<path d="M80.3622 65.5132H79.4805L80.8239 61.6215H81.8842L83.2257 65.5132H82.3441L81.3693 62.5108H81.3389L80.3622 65.5132ZM80.307 63.9835H82.3897V64.6258H80.307V63.9835ZM84.5169 61.6215V65.5132H83.6941V61.6215H84.5169ZM87.8119 65.5132H86.4323V61.6215H87.8233C88.2147 61.6215 88.5517 61.6995 88.8342 61.8553C89.1167 62.0098 89.3339 62.2322 89.4859 62.5223C89.6392 62.8123 89.7159 63.1594 89.7159 63.5636C89.7159 63.9689 89.6392 64.3172 89.4859 64.6087C89.3339 64.9 89.1154 65.1236 88.8304 65.2794C88.5466 65.4353 88.2071 65.5132 87.8119 65.5132ZM87.2551 64.8082H87.7777C88.0209 64.8082 88.2255 64.7652 88.3914 64.6789C88.5586 64.5916 88.6841 64.4567 88.7677 64.2743C88.8525 64.0905 88.895 63.8537 88.895 63.5636C88.895 63.276 88.8525 63.041 88.7677 62.8586C88.6841 62.6762 88.5593 62.5419 88.3933 62.4558C88.2274 62.3697 88.0228 62.3265 87.7796 62.3265H87.2551V64.8082ZM89.8622 61.6215H90.7838L91.6712 63.2976H91.7092L92.5966 61.6215H93.5181L92.0987 64.1375V65.5132H91.2816V64.1375L89.8622 61.6215ZM97.2226 61.6215V65.5132H96.512L94.8189 63.0638H94.7903V65.5132H93.9676V61.6215H94.6896L96.3693 64.0691H96.4036V61.6215H97.2226ZM98.5731 65.5132H97.6915L99.0349 61.6215H100.095L101.437 65.5132H100.555L99.5802 62.5108H99.5498L98.5731 65.5132ZM98.5181 63.9835H100.601V64.6258H98.5181V63.9835ZM101.905 61.6215H102.92L103.992 64.2363H104.037L105.109 61.6215H106.124V65.5132H105.325V62.9802H105.293L104.286 65.4941H103.743L102.735 62.9706H102.703V65.5132H101.905V61.6215ZM107.624 61.6215V65.5132H106.802V61.6215H107.624ZM111.735 62.984H110.903C110.887 62.8763 110.856 62.7807 110.809 62.6971C110.763 62.6123 110.702 62.5401 110.629 62.4805C110.556 62.421 110.471 62.3754 110.374 62.3436C110.279 62.312 110.176 62.2961 110.065 62.2961C109.863 62.2961 109.688 62.3463 109.538 62.4462C109.389 62.5451 109.273 62.6896 109.191 62.8795C109.108 63.0683 109.067 63.2976 109.067 63.5674C109.067 63.8449 109.108 64.078 109.191 64.2666C109.274 64.4554 109.391 64.598 109.54 64.6941C109.69 64.7905 109.863 64.8386 110.059 64.8386C110.169 64.8386 110.271 64.8241 110.365 64.795C110.46 64.7657 110.544 64.7234 110.618 64.6676C110.691 64.6105 110.752 64.5415 110.8 64.4605C110.849 64.3794 110.884 64.287 110.903 64.183L111.735 64.1868C111.713 64.3654 111.66 64.5378 111.573 64.7037C111.488 64.8684 111.374 65.016 111.229 65.1465C111.086 65.2757 110.915 65.3782 110.716 65.4543C110.519 65.5291 110.295 65.5664 110.046 65.5664C109.699 65.5664 109.388 65.4878 109.114 65.3307C108.842 65.1737 108.627 64.9463 108.468 64.6487C108.311 64.3509 108.233 63.9905 108.233 63.5674C108.233 63.143 108.313 62.782 108.472 62.4842C108.632 62.1866 108.848 61.9598 109.122 61.804C109.396 61.647 109.704 61.5684 110.046 61.5684C110.271 61.5684 110.48 61.6 110.673 61.6633C110.866 61.7267 111.038 61.8192 111.188 61.9408C111.337 62.0611 111.459 62.2088 111.552 62.3835C111.647 62.5585 111.708 62.7586 111.735 62.984ZM114.436 62.7407C114.421 62.5876 114.356 62.4685 114.24 62.3835C114.125 62.2988 113.969 62.2563 113.771 62.2563C113.637 62.2563 113.523 62.2752 113.431 62.3133C113.338 62.3499 113.267 62.4013 113.218 62.4672C113.17 62.533 113.146 62.6078 113.146 62.6914C113.143 62.7611 113.158 62.8218 113.189 62.8738C113.222 62.9258 113.267 62.9706 113.324 63.0088C113.381 63.0454 113.447 63.0778 113.522 63.1056C113.597 63.1322 113.676 63.1551 113.761 63.174L114.111 63.2576C114.281 63.2957 114.437 63.3464 114.578 63.4096C114.72 63.473 114.843 63.5509 114.947 63.6434C115.051 63.7358 115.131 63.8449 115.188 63.9703C115.247 64.0957 115.276 64.2395 115.278 64.4015C115.276 64.6398 115.216 64.8462 115.095 65.0211C114.976 65.1946 114.804 65.3296 114.578 65.4257C114.354 65.5207 114.084 65.5684 113.767 65.5684C113.453 65.5684 113.179 65.5202 112.946 65.4239C112.714 65.3276 112.533 65.1851 112.403 64.9963C112.274 64.8064 112.206 64.5712 112.199 64.2913H112.996C113.004 64.4218 113.042 64.5308 113.108 64.6182C113.175 64.7044 113.264 64.7696 113.376 64.8139C113.488 64.857 113.616 64.8786 113.758 64.8786C113.897 64.8786 114.018 64.8582 114.121 64.8177C114.224 64.7771 114.305 64.7207 114.362 64.6487C114.419 64.5764 114.447 64.4935 114.447 64.3997C114.447 64.3122 114.421 64.2388 114.369 64.1793C114.319 64.1198 114.244 64.0691 114.145 64.0273C114.048 63.9855 113.928 63.9474 113.786 63.9132L113.362 63.8067C113.034 63.727 112.775 63.6022 112.585 63.4325C112.395 63.2628 112.301 63.034 112.302 62.7466C112.301 62.5108 112.363 62.3049 112.49 62.1289C112.618 61.9528 112.794 61.8153 113.016 61.7165C113.24 61.6179 113.493 61.5684 113.777 61.5684C114.065 61.5684 114.318 61.6179 114.533 61.7165C114.75 61.8153 114.918 61.9528 115.038 62.1289C115.159 62.3049 115.221 62.509 115.225 62.7407H114.436ZM117.07 65.5132V61.6215H118.605C118.9 61.6215 119.152 61.6779 119.359 61.7908C119.567 61.9021 119.726 62.0573 119.834 62.2563C119.945 62.4539 120 62.6819 120 62.9404C120 63.1987 119.944 63.4268 119.833 63.6245C119.721 63.8219 119.56 63.976 119.348 64.0861C119.138 64.1963 118.883 64.2515 118.584 64.2515H117.606V63.592H118.451C118.609 63.592 118.74 63.5648 118.842 63.5104C118.946 63.4546 119.024 63.378 119.074 63.2805C119.126 63.1817 119.152 63.0683 119.152 62.9404C119.152 62.8111 119.126 62.6984 119.074 62.6021C119.024 62.5046 118.946 62.4292 118.842 62.376C118.739 62.3215 118.607 62.2942 118.447 62.2942H117.892V65.5132H117.07ZM120.534 65.5132V61.6215H122.07C122.363 61.6215 122.614 61.6742 122.822 61.7792C123.031 61.8832 123.19 62.0307 123.299 62.222C123.409 62.4121 123.464 62.6357 123.464 62.8929C123.464 63.1512 123.409 63.3736 123.297 63.5597C123.186 63.7447 123.024 63.8867 122.813 63.9855C122.602 64.0843 122.348 64.1336 122.049 64.1336H121.021V63.4723H121.916C122.073 63.4723 122.203 63.4509 122.307 63.4077C122.411 63.3648 122.488 63.3001 122.539 63.2139C122.591 63.1278 122.617 63.0208 122.617 62.8929C122.617 62.7636 122.591 62.6546 122.539 62.566C122.488 62.4774 122.41 62.4101 122.305 62.3645C122.201 62.3177 122.07 62.2942 121.912 62.2942H121.357V65.5132H120.534ZM122.636 63.7422L123.603 65.5132H122.695L121.748 63.7422H122.636ZM124.868 61.6215V65.5132H124.046V61.6215H124.868ZM126.249 61.6215L127.189 64.5783H127.225L128.168 61.6215H129.08L127.738 65.5132H126.678L125.335 61.6215H126.249ZM129.702 65.5132H128.82L130.163 61.6215H131.224L132.565 65.5132H131.684L130.709 62.5108H130.678L129.702 65.5132ZM129.647 63.9835H131.729V64.6258H129.647V63.9835ZM132.41 62.2999V61.6215H135.606V62.2999H134.415V65.5132H133.601V62.2999H132.41ZM136.132 65.5132V61.6215H138.755V62.2999H136.955V63.2273H138.62V63.9056H136.955V64.8348H138.762V65.5132H136.132ZM140.647 65.5132V61.6215H141.47V64.8348H143.138V65.5132H140.647ZM144.506 61.6215V65.5132H143.683V61.6215H144.506ZM145.183 61.6215H146.198L147.269 64.2363H147.315L148.387 61.6215H149.401V65.5132H148.603V62.9802H148.571L147.564 65.4941H147.021L146.013 62.9706H145.981V65.5132H145.183V61.6215ZM150.902 61.6215V65.5132H150.079V61.6215H150.902ZM151.431 62.2999V61.6215H154.627V62.2999H153.436V65.5132H152.622V62.2999H151.431ZM155.153 65.5132V61.6215H157.776V62.2999H155.976V63.2273H157.641V63.9056H155.976V64.8348H157.783V65.5132H155.153ZM159.809 65.5132H158.43V61.6215H159.821C160.212 61.6215 160.549 61.6995 160.832 61.8553C161.114 62.0098 161.331 62.2322 161.483 62.5223C161.637 62.8123 161.713 63.1594 161.713 63.5636C161.713 63.9689 161.637 64.3172 161.483 64.6087C161.331 64.9 161.113 65.1236 160.828 65.2794C160.544 65.4353 160.204 65.5132 159.809 65.5132ZM159.253 64.8082H159.775C160.018 64.8082 160.223 64.7652 160.389 64.6789C160.556 64.5916 160.682 64.4567 160.765 64.2743C160.85 64.0905 160.892 63.8537 160.892 63.5636C160.892 63.276 160.85 63.041 160.765 62.8586C160.682 62.6762 160.557 62.5419 160.391 62.4558C160.225 62.3697 160.02 62.3265 159.777 62.3265H159.253V64.8082Z" fill="white"/>
</svg>
